<?xml version="1.0"?>
<svg xmlns="http://www.w3.org/2000/svg" xmlns:xlink="http://www.w3.org/1999/xlink" xmlns:svgjs="http://svgjs.com/svgjs" version="1.1" width="512" height="512" x="0" y="0" viewBox="0 0 24 24" style="enable-background:new 0 0 512 512" xml:space="preserve"><g><path xmlns="http://www.w3.org/2000/svg" d="M15,24A12,12,0,1,1,19.058.71a2.93,2.93,0,0,1,.814,5.067c-5.1,3.92-5.088,8.539,0,12.446a2.93,2.93,0,0,1-.816,5.067A12.2,12.2,0,0,1,15,24ZM15,3a9,9,0,1,0,2.925,17.508c-6.511-5.065-6.489-11.969,0-17.016A9.322,9.322,0,0,0,15,3Z" fill="#5949e3" data-original="#000000"/></g></svg>
